<svg width="336" height="66" viewBox="0 0 336 66" fill="none" xmlns="http://www.w3.org/2000/svg">
<path d="M18.3187 49.2209C17.9525 48.0411 17.556 47.084 17.3779 46.087C17.2805 45.5221 17.5392 44.894 17.6366 44.2925C18.1601 44.596 18.6589 44.9393 19.1285 45.3194C19.4275 45.5952 19.5753 46.0372 20.0323 46.8248C20.6438 43.9602 21.2789 41.5076 21.672 39.0052C22.0349 36.6789 22.0517 34.3293 22.4078 32.0263C22.4832 31.6353 22.6368 31.2631 22.8595 30.9316C23.0822 30.6 23.3696 30.3158 23.7048 30.0955C28.6339 27.3771 33.3177 24.3529 37.296 20.3451C38.3477 19.2816 39.3758 19.255 40.3469 20.3251C44.0664 24.436 48.72 27.2508 53.5617 29.8762C54.2673 30.2617 54.8654 31.3417 54.9964 32.1792C55.7424 36.8318 56.3405 41.5342 56.9654 46.2167L57.5904 46.3429C57.8484 45.812 58.1626 45.3096 58.5278 44.8441C58.8201 44.5417 59.3342 44.4454 59.7475 44.2559C59.9189 44.6713 60.3019 45.1366 60.2179 45.4988C59.9491 46.6819 59.5089 47.8251 59.0049 49.3904C60.4464 49.3904 61.6089 49.3272 62.7547 49.4269C63.1377 49.4602 63.4838 49.9221 63.8467 50.1846C63.5107 50.4671 63.1982 50.8659 62.8017 50.9955C62.3481 51.1384 61.8139 51.0487 61.3133 51.0487C46.2717 51.0487 31.2289 51.0376 16.1851 51.0154C15.3821 51.0154 13.8768 50.4704 13.8936 50.2943C14.0515 48.739 15.3888 49.5698 16.2456 49.3837C16.9325 49.287 17.6249 49.2326 18.3187 49.2209ZM49.4524 30.2052L38.6837 21.9801L27.9619 30.2052C29.4235 30.2052 30.4214 30.1022 31.3824 30.2451C31.9334 30.3281 32.4206 30.8133 32.9347 31.1191C32.3937 31.4015 31.8696 31.8901 31.3118 31.9299C29.7555 32.0595 28.191 32.0595 26.6347 31.9299C24.8203 31.7638 24.1685 32.3387 24.0173 34.223C23.735 37.7091 23.1201 41.1719 22.5489 44.6315C22.3003 46.1203 21.8198 47.5725 21.4099 49.181H26.423C25.751 47.3499 24.9245 45.6849 24.5515 43.9269C24.4037 43.2357 25.0219 41.933 25.6603 41.6006C29.9947 39.2744 33.6974 36.207 37.0843 32.7109C38.6433 31.1025 39.0701 31.0493 40.5048 32.7109C43.6282 36.3473 47.4479 39.3368 51.744 41.5076C52.8629 42.0725 53.3601 42.8602 52.9435 44.0532C52.3421 45.7713 51.6801 47.4662 51.0417 49.1843H55.6349C54.8184 43.6777 54.0523 38.3239 53.1753 32.9867C53.1081 32.5846 52.2513 32.0562 51.7305 32.023C49.8053 31.9034 47.8598 32.023 45.9312 31.9233C45.4608 31.8967 45.0173 31.355 44.5603 31.0493C45.0307 30.7668 45.4809 30.3049 45.9816 30.2451C46.9963 30.1188 48.048 30.2052 49.4524 30.2052ZM38.7609 36.9315L32.0577 49.1843H45.2894C43.008 44.884 40.7803 40.72 38.7609 36.9315ZM41.1869 36.8218C42.6955 41.4411 45.1752 45.1067 48.0547 48.6293C49.9061 47.5792 50.4638 45.7979 51.0417 44.0698C51.1224 43.8272 50.7494 43.2988 50.4504 43.0928C47.5137 41.0689 44.5469 39.0849 41.1869 36.8218ZM36.3048 36.6589C33.5328 38.6097 31.2648 40.3145 28.9128 41.8299C25.9963 43.681 25.8216 44.2061 27.8813 47.0176C28.3013 47.5925 28.7885 48.1209 29.3697 48.8154C32.2291 45.0701 34.692 41.388 36.3048 36.6589Z" fill="#1B0CFF"/>
<path d="M280.13 44.9238C276.931 45.8078 276.259 45.5885 274.7 43.4151C273.911 42.3084 273.205 41.1287 272.328 40.0918C271.851 39.5302 271.142 38.922 270.46 38.809C267.799 38.367 267.409 38.7658 267.402 41.4278C267.402 42.0426 267.362 42.664 267.402 43.2788C267.51 44.7278 267.013 45.3991 265.386 45.3858C263.706 45.3858 263.629 44.442 263.649 43.2223C263.679 41.2483 263.69 39.271 263.649 37.2936C263.626 35.9643 264.183 35.3761 265.551 35.4027C267.799 35.4459 270.047 35.4459 272.294 35.3827C274.542 35.3196 275.99 34.0202 275.964 32.2423C275.943 30.5806 274.472 29.3211 272.308 29.2513C270.144 29.1815 267.94 29.2081 265.749 29.2247C264.583 29.2247 263.669 29.1184 263.636 27.5864C263.602 26.0543 264.429 25.8383 265.652 25.9247C268.992 26.1507 272.372 26.1175 275.658 26.6658C278.171 27.0846 279.508 29.145 279.71 31.6507C279.912 34.1565 279.055 36.2169 276.753 37.4C275.55 38.0148 275.54 38.5398 276.263 39.5069C277.563 41.2084 278.762 42.983 280.13 44.9238Z" fill="#D9D9E3"/>
<path d="M256.368 34.851C257.376 36.3132 258.747 37.4697 259.056 38.8389C259.802 42.2419 257.312 45.0634 253.599 45.2761C250.911 45.4323 248.223 45.3026 245.535 45.3292C244.427 45.3292 243.986 44.8507 243.963 43.764C243.936 42.5543 244.487 42.1023 245.643 42.1023C247.578 42.1023 249.514 42.1356 251.449 42.0824C254.255 42.0026 255.481 41.1619 255.417 39.4437C255.36 37.812 254.157 37.0676 251.459 37.031C249.524 37.0078 247.588 37.031 245.653 37.0111C244.645 37.0111 243.973 36.6489 243.973 35.499C243.973 34.3492 244.645 34.0036 245.653 33.9869C247.669 33.957 249.648 33.957 251.644 33.8773C253.079 33.8175 254.308 33.2691 254.392 31.6739C254.48 29.9924 253.159 29.464 251.785 29.3477C249.86 29.1948 247.921 29.2214 245.986 29.2081C244.79 29.2081 243.939 28.9788 243.916 27.49C243.892 25.8782 244.894 25.8948 246.019 25.9048C248.035 25.9048 250.018 25.9048 252.017 25.9048C254.507 25.9048 256.56 26.7023 257.682 29.0552C258.804 31.4081 258.001 33.3688 256.368 34.851Z" fill="#D9D9E3"/>
<path d="M318.434 37.7722C318.434 34.5054 318.457 31.2353 318.434 27.9686C318.434 26.729 318.494 25.8317 320.191 25.8782C321.693 25.9181 322.13 26.4764 322.117 27.8722C322.063 32.9967 322.117 38.1211 322.056 43.2423C322.056 43.9235 321.545 45.1531 321.24 45.1631C320.292 45.1997 318.888 45.0767 318.444 44.4619C314.163 38.6994 310.044 32.8305 305.878 26.9683C305.796 26.8078 305.738 26.6365 305.706 26.4598C307.578 25.4196 309.009 25.6788 310.162 27.2707C312.339 30.2815 314.499 33.3024 316.683 36.3099C317.103 36.8882 317.587 37.4232 318.027 37.9716L318.434 37.7722Z" fill="#D9D9E3"/>
<path d="M214.314 37.4399C212.634 37.4399 211.27 37.41 209.913 37.4399C208.555 37.4698 208.444 36.6224 208.434 35.6121C208.424 34.6018 208.538 33.7145 209.902 33.7976C210.087 33.7976 210.275 33.7976 210.464 33.7976C214.314 33.7311 214.314 33.7311 214.314 29.9891C214.314 29.3245 214.344 28.6299 214.314 27.952C214.25 26.7323 214.314 25.8151 216.041 25.865C217.583 25.9115 218.101 26.4033 218.081 27.9254C218.007 33.0499 218.007 38.1732 218.081 43.2955C218.101 44.791 217.634 45.3426 216.065 45.3825C214.344 45.429 214.287 44.5317 214.314 43.2988C214.348 41.4644 214.314 39.62 214.314 37.4399Z" fill="#D9D9E3"/>
<path d="M294.336 45.1165C294.034 43.4017 293.714 42.1256 295.878 41.1751C299.238 39.6863 300.381 32.7208 295.64 29.9757C293.785 28.9023 294.003 27.6893 294.38 26.1606C298.976 26.4498 302.423 30.4809 302.477 35.4857C302.531 40.4906 299.09 44.6347 294.336 45.1165Z" fill="#D9D9E3"/>
<path d="M291.235 26.0811C291.571 27.7427 291.907 29.0122 289.81 29.8995C287.546 30.8533 286.786 33.1164 286.726 35.4427C286.672 37.8554 287.445 40.165 289.793 41.1587C291.994 42.0859 291.453 43.485 291.349 45.0303C287.24 45.2064 283.423 41.1388 282.969 36.3001C282.516 31.4614 286.198 26.769 291.235 26.0811Z" fill="#D9D9E3"/>
<path d="M90.8644 44.9838C87.8875 45.8811 87.286 45.572 86.3385 42.9599C84.5745 38.108 82.7567 33.2726 80.9625 28.4273C80.7139 27.7626 80.5257 27.0548 80.3107 26.3802C82.9987 25.3832 84.0335 25.7155 84.8971 28.0086C86.866 33.246 88.7779 38.5068 90.6931 43.7642C90.7974 44.1628 90.8549 44.5721 90.8644 44.9838Z" fill="#D9D9E3"/>
<path d="M112.335 35.5589C112.335 38.2175 112.274 40.8762 112.355 43.5148C112.402 45.0468 111.683 45.3559 110.309 45.3925C108.83 45.429 108.531 44.7644 108.541 43.4916C108.584 38.2474 108.584 33.0033 108.541 27.7592C108.541 26.4299 108.908 25.8716 110.342 25.9015C111.717 25.9281 112.419 26.2604 112.358 27.7858C112.271 30.3613 112.335 32.9535 112.335 35.5589Z" fill="#D9D9E3"/>
<path d="M153.676 35.6885C153.676 38.3471 153.639 40.9824 153.693 43.6278C153.717 44.884 153.246 45.3924 151.943 45.3692C150.719 45.3459 149.906 45.1498 149.927 43.6743C149.96 38.3238 149.967 32.9701 149.927 27.6163C149.927 26.1441 150.666 25.9081 151.912 25.8982C153.159 25.8882 153.75 26.2305 153.72 27.5598C153.633 30.2749 153.676 32.9834 153.676 35.6885Z" fill="#D9D9E3"/>
<path d="M201.523 35.5289C201.523 32.8703 201.58 30.2117 201.503 27.573C201.455 26.031 202.343 25.938 203.519 25.9114C204.795 25.8549 205.296 26.2537 205.296 27.583C205.242 32.9467 205.242 38.3127 205.296 43.6809C205.296 44.9903 204.789 45.4023 203.519 45.3658C202.309 45.3325 201.466 45.1797 201.503 43.6676C201.573 40.9558 201.523 38.2407 201.523 35.5289Z" fill="#D9D9E3"/>
<path d="M125.422 36.7352C123.44 36.7352 123.07 36.3065 123.349 34.4954C124.118 29.5105 128.019 26.0809 133.093 25.9413C134.403 25.9047 135.717 25.9413 137.028 25.9114C138.224 25.8748 139.074 26.021 139.044 27.573C139.013 29.125 138.093 29.2081 136.94 29.2346C135.569 29.2027 134.197 29.2626 132.834 29.4141C129.525 29.9159 127.912 31.5177 127.357 34.7978C127.136 36.0274 126.83 36.9845 125.422 36.7352Z" fill="#D9D9E3"/>
<path d="M127.411 45.3426C126.662 45.3426 125.913 45.326 125.167 45.3426C124.068 45.3725 123.201 45.2495 123.198 43.8039C123.194 42.3583 123.782 41.7501 125.214 41.8099C126.148 41.8365 127.082 41.8099 128.019 41.8099C132.36 41.79 133.889 40.587 135.075 36.4562C135.237 35.9045 135.882 35.1834 136.403 35.0936C138.755 34.6782 139.349 35.426 138.721 37.7522C137.347 42.7737 133.547 45.3326 127.411 45.3426Z" fill="#D9D9E3"/>
<path d="M172.425 29.4874C170.362 29.4874 168.302 29.4608 166.243 29.4874C164.801 29.5107 164.707 28.6267 164.664 27.5333C164.62 26.3403 165.063 25.8717 166.29 25.8983C170.473 25.9448 174.66 25.9348 178.843 25.8983C180.042 25.8983 180.708 26.1907 180.681 27.5599C180.654 28.9291 180.143 29.5007 178.796 29.4874C176.672 29.4708 174.549 29.4907 172.425 29.4874Z" fill="#D9D9E3"/>
<path d="M98.952 26.2539C96.9562 31.066 95.0343 35.7152 93.109 40.3611C91.4559 38.0349 90.4815 35.9844 91.9632 33.5053C92.904 31.9367 93.4215 30.1222 94.1304 28.4173C95.293 25.6324 95.5416 25.5095 98.952 26.2539Z" fill="#D9D9E3"/>
<path d="M230.362 45.3392C228.497 45.3392 226.632 45.3392 224.767 45.3392C223.759 45.3392 223.087 45.0999 223.087 43.9135C223.087 42.8534 223.151 41.8398 224.552 41.8299C228.53 41.7966 232.509 41.7966 236.487 41.8299C237.777 41.8299 237.875 42.7969 237.891 43.7873C237.911 44.864 237.448 45.3625 236.332 45.3459C234.343 45.316 232.354 45.3392 230.362 45.3392Z" fill="#D9D9E3"/>
<path d="M230.533 25.9215C232.465 25.9215 234.397 25.9414 236.329 25.9215C237.394 25.9215 237.945 26.2937 237.948 27.4236C237.952 28.5535 237.586 29.2115 236.362 29.2082C232.501 29.2082 228.639 29.2082 224.777 29.2082C223.638 29.2082 223.097 28.7396 223.07 27.5465C223.043 26.3535 223.571 25.8849 224.75 25.9181C226.672 25.9514 228.604 25.9215 230.533 25.9215Z" fill="#D9D9E3"/>
<path d="M174.441 38.7226C174.441 40.4507 174.408 42.1788 174.441 43.9069C174.471 45.2362 173.662 45.3857 172.61 45.3492C171.632 45.3159 170.664 45.3492 170.668 43.98C170.668 40.5238 170.668 37.0676 170.668 33.6114C170.668 32.1625 171.676 32.1625 172.731 32.1226C173.893 32.0794 174.481 32.5048 174.451 33.7244C174.411 35.3894 174.444 37.0543 174.441 38.7226Z" fill="#D9D9E3"/>
<path d="M229.995 33.811C231.612 33.811 233.231 33.8376 234.847 33.811C236.05 33.7877 236.527 34.3593 236.527 35.4992C236.527 36.5859 236.158 37.3037 234.941 37.3037C231.517 37.3037 228.097 37.3037 224.673 37.3037C223.477 37.3037 223.091 36.6025 223.091 35.4959C223.091 34.3261 223.605 33.811 224.771 33.8342C226.511 33.8309 228.252 33.8143 229.995 33.811Z" fill="#D9D9E3"/>
<path d="M305.575 30.8267C306.798 32.5348 308.656 33.8542 308.67 36.31C308.67 38.8989 308.67 41.491 308.67 44.0798C308.67 45.3825 307.763 45.3593 306.862 45.3327C306.029 45.3094 304.96 45.5554 304.954 44.2094C304.933 39.8427 304.954 35.4759 304.954 31.1091L305.575 30.8267Z" fill="#D9D9E3"/>
</svg>
