<svg width="336" height="66" viewBox="0 0 336 66" fill="none" xmlns="http://www.w3.org/2000/svg">
<path d="M18.3188 49.2209C17.9526 48.0411 17.5561 47.084 17.378 46.087C17.2806 45.5221 17.5393 44.894 17.6367 44.2925C18.1602 44.596 18.659 44.9393 19.1286 45.3194C19.4276 45.5952 19.5755 46.0372 20.0324 46.8248C20.6439 43.9602 21.279 41.5076 21.6721 39.0052C22.035 36.6789 22.0518 34.3293 22.4079 32.0263C22.4833 31.6353 22.6369 31.2631 22.8596 30.9316C23.0823 30.6 23.3697 30.3158 23.7049 30.0955C28.634 27.3771 33.3179 24.3529 37.2961 20.3451C38.3478 19.2816 39.3759 19.255 40.347 20.3251C44.0665 24.436 48.7201 27.2508 53.5619 29.8762C54.2675 30.2617 54.8655 31.3417 54.9966 32.1792C55.7425 36.8318 56.3406 41.5342 56.9655 46.2167L57.5905 46.3429C57.8485 45.812 58.1628 45.3096 58.5279 44.8441C58.8203 44.5417 59.3343 44.4454 59.7476 44.2559C59.919 44.6713 60.302 45.1366 60.218 45.4988C59.9492 46.6819 59.5091 47.8251 59.0051 49.3904C60.4465 49.3904 61.6091 49.3272 62.7548 49.4269C63.1379 49.4602 63.4839 49.9221 63.8468 50.1846C63.5108 50.4671 63.1983 50.8659 62.8019 50.9955C62.3483 51.1384 61.814 51.0487 61.3134 51.0487C46.2718 51.0487 31.2291 51.0376 16.1852 51.0154C15.3822 51.0154 13.8769 50.4704 13.8937 50.2943C14.0516 48.739 15.3889 49.5698 16.2457 49.3837C16.9327 49.287 17.625 49.2326 18.3188 49.2209ZM49.4526 30.2052L38.6838 21.9801L27.962 30.2052C29.4236 30.2052 30.4215 30.1022 31.3825 30.2451C31.9335 30.3281 32.4207 30.8133 32.9348 31.1191C32.3939 31.4015 31.8697 31.8901 31.3119 31.9299C29.7556 32.0595 28.1911 32.0595 26.6348 31.9299C24.8204 31.7638 24.1686 32.3387 24.0174 34.223C23.7351 37.7091 23.1203 41.1719 22.5491 44.6315C22.3004 46.1203 21.8199 47.5725 21.41 49.181H26.4231C25.7511 47.3499 24.9246 45.6849 24.5516 43.9269C24.4038 43.2357 25.022 41.933 25.6604 41.6006C29.9948 39.2744 33.6975 36.207 37.0844 32.7109C38.6435 31.1025 39.0702 31.0493 40.5049 32.7109C43.6284 36.3473 47.448 39.3368 51.7441 41.5076C52.863 42.0725 53.3603 42.8602 52.9436 44.0532C52.3422 45.7713 51.6803 47.4662 51.0419 49.1843H55.635C54.8185 43.6777 54.0524 38.3239 53.1754 32.9867C53.1082 32.5846 52.2515 32.0562 51.7307 32.023C49.8054 31.9034 47.8599 32.023 45.9313 31.9233C45.4609 31.8967 45.0174 31.355 44.5604 31.0493C45.0308 30.7668 45.4811 30.3049 45.9817 30.2451C46.9964 30.1188 48.0481 30.2052 49.4526 30.2052ZM38.7611 36.9315L32.0579 49.1843H45.2895C43.0081 44.884 40.7804 40.72 38.7611 36.9315ZM41.187 36.8218C42.6956 41.4411 45.1753 45.1067 48.0548 48.6293C49.9062 47.5792 50.4639 45.7979 51.0419 44.0698C51.1225 43.8272 50.7495 43.2988 50.4505 43.0928C47.5139 41.0689 44.547 39.0849 41.187 36.8218ZM36.3049 36.6589C33.5329 38.6097 31.2649 40.3145 28.9129 41.8299C25.9964 43.681 25.8217 44.2061 27.8814 47.0176C28.3014 47.5925 28.7886 48.1209 29.3699 48.8154C32.2292 45.0701 34.6921 41.388 36.3049 36.6589Z" fill="#1B0CFF"/>
<path d="M280.13 44.9238C276.931 45.8078 276.259 45.5885 274.7 43.4151C273.911 42.3084 273.205 41.1287 272.328 40.0918C271.851 39.5302 271.142 38.922 270.46 38.809C267.799 38.367 267.409 38.7658 267.402 41.4278C267.402 42.0426 267.362 42.664 267.402 43.2788C267.51 44.7278 267.013 45.3991 265.386 45.3858C263.706 45.3858 263.629 44.442 263.649 43.2223C263.679 41.2483 263.69 39.271 263.649 37.2936C263.626 35.9643 264.183 35.3761 265.551 35.4027C267.799 35.4459 270.047 35.4459 272.294 35.3827C274.542 35.3196 275.99 34.0202 275.964 32.2423C275.943 30.5806 274.472 29.3211 272.308 29.2513C270.144 29.1815 267.94 29.2081 265.749 29.2247C264.583 29.2247 263.669 29.1184 263.636 27.5864C263.602 26.0543 264.429 25.8383 265.652 25.9247C268.992 26.1507 272.372 26.1175 275.658 26.6658C278.171 27.0846 279.508 29.145 279.71 31.6507C279.912 34.1565 279.055 36.2169 276.753 37.4C275.55 38.0148 275.54 38.5398 276.263 39.5069C277.563 41.2084 278.762 42.983 280.13 44.9238Z" fill="#D9D9E3"/>
<path d="M256.368 34.8511C257.376 36.3133 258.747 37.4698 259.056 38.839C259.802 42.242 257.312 45.0635 253.599 45.2762C250.911 45.4324 248.223 45.3028 245.535 45.3294C244.427 45.3294 243.986 44.8508 243.963 43.7641C243.936 42.5544 244.487 42.1025 245.643 42.1025C247.578 42.1025 249.514 42.1357 251.449 42.0825C254.255 42.0028 255.481 41.162 255.417 39.4439C255.36 37.8121 254.157 37.0677 251.459 37.0312C249.524 37.0079 247.588 37.0312 245.653 37.0112C244.645 37.0112 243.973 36.649 243.973 35.4991C243.973 34.3493 244.645 34.0037 245.653 33.9871C247.669 33.9571 249.648 33.9572 251.644 33.8774C253.079 33.8176 254.308 33.2692 254.392 31.6741C254.48 29.9925 253.159 29.4641 251.785 29.3478C249.86 29.1949 247.921 29.2215 245.986 29.2082C244.79 29.2082 243.939 28.9789 243.916 27.4901C243.892 25.8783 244.894 25.8949 246.019 25.9049C248.035 25.9049 250.018 25.9049 252.017 25.9049C254.507 25.9049 256.56 26.7025 257.682 29.0553C258.804 31.4082 258.001 33.3689 256.368 34.8511Z" fill="#D9D9E3"/>
<path d="M318.434 37.7722C318.434 34.5054 318.457 31.2353 318.434 27.9686C318.434 26.729 318.494 25.8317 320.191 25.8782C321.693 25.9181 322.13 26.4764 322.116 27.8722C322.063 32.9967 322.116 38.1211 322.056 43.2423C322.056 43.9235 321.545 45.1531 321.239 45.1631C320.292 45.1997 318.887 45.0767 318.444 44.4619C314.163 38.6994 310.044 32.8305 305.877 26.9683C305.796 26.8078 305.738 26.6365 305.706 26.4598C307.578 25.4196 309.009 25.6788 310.161 27.2707C312.339 30.2815 314.499 33.3024 316.683 36.3099C317.103 36.8882 317.587 37.4232 318.027 37.9716L318.434 37.7722Z" fill="#D9D9E3"/>
<path d="M214.314 37.4399C212.634 37.4399 211.27 37.41 209.913 37.4399C208.555 37.4698 208.444 36.6224 208.434 35.6121C208.424 34.6018 208.538 33.7145 209.902 33.7976C210.087 33.7976 210.275 33.7976 210.464 33.7976C214.314 33.7311 214.314 33.7311 214.314 29.9891C214.314 29.3245 214.344 28.6299 214.314 27.952C214.25 26.7323 214.314 25.8151 216.041 25.865C217.583 25.9115 218.101 26.4033 218.081 27.9254C218.007 33.0499 218.007 38.1732 218.081 43.2955C218.101 44.791 217.634 45.3426 216.065 45.3825C214.344 45.429 214.287 44.5317 214.314 43.2988C214.348 41.4644 214.314 39.62 214.314 37.4399Z" fill="#D9D9E3"/>
<path d="M294.336 45.1167C294.034 43.4019 293.715 42.1257 295.878 41.1753C299.238 39.6864 300.381 32.7209 295.64 29.9759C293.785 28.9025 294.004 27.6895 294.38 26.1608C298.976 26.4499 302.424 30.481 302.477 35.4858C302.531 40.4907 299.091 44.6348 294.336 45.1167Z" fill="#D9D9E3"/>
<path d="M291.235 26.0809C291.571 27.7426 291.907 29.012 289.81 29.8994C287.545 30.8531 286.786 33.1163 286.725 35.4426C286.672 37.8553 287.444 40.1649 289.793 41.1586C291.994 42.0858 291.453 43.4849 291.349 45.0302C287.239 45.2063 283.423 41.1386 282.969 36.3C282.515 31.4613 286.198 26.7688 291.235 26.0809Z" fill="#D9D9E3"/>
<path d="M90.8645 44.9837C87.8876 45.881 87.2861 45.5719 86.3386 42.9598C84.5746 38.1078 82.7569 33.2725 80.9626 28.4272C80.714 27.7625 80.5258 27.0547 80.3108 26.38C82.9988 25.3831 84.0337 25.7154 84.8972 28.0084C86.8661 33.2459 88.778 38.5066 90.6932 43.764C90.7975 44.1627 90.855 44.572 90.8645 44.9837Z" fill="#D9D9E3"/>
<path d="M112.335 35.5589C112.335 38.2175 112.274 40.8762 112.355 43.5148C112.402 45.0468 111.683 45.3559 110.309 45.3925C108.83 45.429 108.531 44.7644 108.541 43.4916C108.584 38.2474 108.584 33.0033 108.541 27.7592C108.541 26.4299 108.907 25.8716 110.342 25.9015C111.716 25.9281 112.419 26.2604 112.358 27.7858C112.271 30.3613 112.335 32.9535 112.335 35.5589Z" fill="#D9D9E3"/>
<path d="M153.676 35.6885C153.676 38.3471 153.639 40.9824 153.693 43.6278C153.717 44.884 153.246 45.3924 151.943 45.3692C150.72 45.3459 149.906 45.1498 149.927 43.6743C149.96 38.3238 149.967 32.9701 149.927 27.6163C149.927 26.1441 150.666 25.9081 151.912 25.8982C153.159 25.8882 153.75 26.2305 153.72 27.5598C153.633 30.2749 153.676 32.9834 153.676 35.6885Z" fill="#D9D9E3"/>
<path d="M201.523 35.529C201.523 32.8704 201.58 30.2118 201.503 27.5732C201.456 26.0312 202.343 25.9381 203.519 25.9115C204.796 25.855 205.296 26.2538 205.296 27.5831C205.242 32.9469 205.242 38.3128 205.296 43.681C205.296 44.9904 204.789 45.4025 203.519 45.3659C202.309 45.3327 201.466 45.1798 201.503 43.6677C201.573 40.9559 201.523 38.2408 201.523 35.529Z" fill="#D9D9E3"/>
<path d="M125.422 36.7354C123.439 36.7354 123.07 36.3067 123.349 34.4955C124.118 29.5106 128.019 26.081 133.093 25.9414C134.403 25.9049 135.717 25.9414 137.027 25.9115C138.223 25.8749 139.074 26.0212 139.043 27.5731C139.013 29.1251 138.092 29.2082 136.94 29.2348C135.569 29.2028 134.197 29.2627 132.834 29.4142C129.524 29.916 127.912 31.5178 127.357 34.7979C127.135 36.0275 126.83 36.9846 125.422 36.7354Z" fill="#D9D9E3"/>
<path d="M127.411 45.3426C126.662 45.3426 125.913 45.326 125.167 45.3426C124.068 45.3725 123.201 45.2495 123.198 43.8039C123.194 42.3583 123.782 41.7501 125.214 41.8099C126.148 41.8365 127.082 41.8099 128.019 41.8099C132.36 41.79 133.889 40.587 135.075 36.4562C135.237 35.9045 135.882 35.1834 136.403 35.0936C138.755 34.6782 139.349 35.426 138.721 37.7522C137.347 42.7737 133.547 45.3326 127.411 45.3426Z" fill="#D9D9E3"/>
<path d="M172.425 29.4873C170.362 29.4873 168.302 29.4607 166.243 29.4873C164.801 29.5105 164.707 28.6266 164.664 27.5332C164.62 26.3402 165.063 25.8716 166.29 25.8982C170.473 25.9447 174.66 25.9347 178.843 25.8982C180.042 25.8982 180.708 26.1906 180.681 27.5598C180.654 28.929 180.143 29.5006 178.796 29.4873C176.672 29.4707 174.549 29.4906 172.425 29.4873Z" fill="#D9D9E3"/>
<path d="M98.952 26.2538C96.9562 31.0659 95.0343 35.7151 93.109 40.361C91.4559 38.0347 90.4815 35.9843 91.9632 33.5051C92.904 31.9365 93.4215 30.122 94.1304 28.4172C95.293 25.6323 95.5416 25.5094 98.952 26.2538Z" fill="#D9D9E3"/>
<path d="M230.362 45.3392C228.497 45.3392 226.632 45.3392 224.767 45.3392C223.759 45.3392 223.087 45.0999 223.087 43.9135C223.087 42.8534 223.151 41.8398 224.552 41.8299C228.531 41.7966 232.509 41.7966 236.487 41.8299C237.777 41.8299 237.875 42.7969 237.892 43.7873C237.912 44.864 237.448 45.3625 236.333 45.3459C234.343 45.316 232.354 45.3392 230.362 45.3392Z" fill="#D9D9E3"/>
<path d="M230.533 25.9215C232.465 25.9215 234.397 25.9414 236.329 25.9215C237.394 25.9215 237.945 26.2937 237.948 27.4236C237.952 28.5535 237.586 29.2115 236.362 29.2082C232.501 29.2082 228.639 29.2082 224.777 29.2082C223.638 29.2082 223.097 28.7396 223.07 27.5465C223.043 26.3535 223.571 25.8849 224.75 25.9181C226.672 25.9514 228.604 25.9215 230.533 25.9215Z" fill="#D9D9E3"/>
<path d="M174.441 38.7227C174.441 40.4508 174.408 42.1789 174.441 43.907C174.471 45.2363 173.662 45.3858 172.61 45.3493C171.632 45.3161 170.665 45.3493 170.668 43.9801C170.668 40.5239 170.668 37.0677 170.668 33.6115C170.668 32.1626 171.676 32.1626 172.731 32.1227C173.894 32.0795 174.482 32.5049 174.451 33.7245C174.411 35.3895 174.445 37.0544 174.441 38.7227Z" fill="#D9D9E3"/>
<path d="M229.995 33.8109C231.611 33.8109 233.231 33.8374 234.847 33.8109C236.05 33.7876 236.527 34.3592 236.527 35.4991C236.527 36.5858 236.157 37.3036 234.941 37.3036C231.517 37.3036 228.097 37.3036 224.673 37.3036C223.477 37.3036 223.09 36.6024 223.09 35.4958C223.09 34.326 223.604 33.8109 224.77 33.8341C226.511 33.8308 228.251 33.8142 229.995 33.8109Z" fill="#D9D9E3"/>
<path d="M305.575 30.8265C306.798 32.5347 308.657 33.854 308.67 36.3099C308.67 38.8987 308.67 41.4909 308.67 44.0797C308.67 45.3824 307.763 45.3592 306.862 45.3326C306.029 45.3093 304.961 45.5552 304.954 44.2093C304.934 39.8425 304.954 35.4758 304.954 31.109L305.575 30.8265Z" fill="#D9D9E3"/>
</svg>
