<svg width="336" height="66" viewBox="0 0 336 66" fill="none" xmlns="http://www.w3.org/2000/svg">
<path d="M18.3187 49.2208C17.9525 48.0411 17.556 47.084 17.3779 46.087C17.2805 45.522 17.5392 44.8939 17.6366 44.2924C18.1601 44.5959 18.6589 44.9392 19.1285 45.3193C19.4275 45.5951 19.5753 46.0371 20.0323 46.8247C20.6438 43.9601 21.2789 41.5075 21.672 39.0051C22.0349 36.6788 22.0517 34.3293 22.4078 32.0263C22.4832 31.6353 22.6368 31.2631 22.8595 30.9315C23.0822 30.6 23.3696 30.3157 23.7048 30.0954C28.6339 27.377 33.3177 24.3528 37.296 20.345C38.3477 19.2815 39.3758 19.255 40.3469 20.3251C44.0664 24.4359 48.72 27.2507 53.5617 29.8761C54.2673 30.2616 54.8654 31.3417 54.9964 32.1791C55.7424 36.8317 56.3405 41.5341 56.9654 46.2166L57.5904 46.3429C57.8484 45.8119 58.1626 45.3095 58.5278 44.8441C58.8201 44.5417 59.3342 44.4453 59.7475 44.2559C59.9189 44.6713 60.3019 45.1365 60.2179 45.4988C59.9491 46.6819 59.5089 47.8251 59.0049 49.3903C60.4464 49.3903 61.6089 49.3272 62.7547 49.4269C63.1377 49.4601 63.4838 49.922 63.8467 50.1846C63.5107 50.467 63.1982 50.8658 62.8017 50.9954C62.3481 51.1383 61.8139 51.0486 61.3133 51.0486C46.2717 51.0486 31.2289 51.0375 16.1851 51.0154C15.3821 51.0154 13.8768 50.4704 13.8936 50.2942C14.0515 48.7389 15.3888 49.5698 16.2456 49.3837C16.9325 49.2869 17.6249 49.2325 18.3187 49.2208ZM49.4524 30.2051L38.6837 21.98L27.9619 30.2051C29.4235 30.2051 30.4214 30.1021 31.3824 30.245C31.9334 30.3281 32.4206 30.8133 32.9347 31.119C32.3937 31.4015 31.8696 31.89 31.3118 31.9299C29.7555 32.0594 28.191 32.0594 26.6347 31.9299C24.8203 31.7637 24.1685 32.3386 24.0173 34.2229C23.735 37.709 23.1201 41.1719 22.5489 44.6314C22.3003 46.1202 21.8198 47.5725 21.4099 49.1809H26.423C25.751 47.3498 24.9245 45.6849 24.5515 43.9269C24.4037 43.2356 25.0219 41.9329 25.6603 41.6006C29.9947 39.2743 33.6974 36.2069 37.0843 32.7109C38.6433 31.1024 39.0701 31.0492 40.5048 32.7109C43.6282 36.3472 47.4479 39.3368 51.744 41.5075C52.8629 42.0725 53.3601 42.8601 52.9435 44.0532C52.3421 45.7713 51.6801 47.4661 51.0417 49.1843H55.6349C54.8184 43.6776 54.0523 38.3238 53.1753 32.9867C53.1081 32.5846 52.2513 32.0562 51.7305 32.0229C49.8053 31.9033 47.8598 32.0229 45.9312 31.9232C45.4608 31.8967 45.0173 31.355 44.5603 31.0492C45.0307 30.7667 45.4809 30.3048 45.9816 30.245C46.9963 30.1187 48.048 30.2051 49.4524 30.2051ZM38.7609 36.9314L32.0577 49.1843H45.2894C43.008 44.884 40.7803 40.7199 38.7609 36.9314ZM41.1869 36.8217C42.6955 41.4411 45.1752 45.1066 48.0547 48.6293C49.9061 47.5791 50.4638 45.7979 51.0417 44.0698C51.1224 43.8272 50.7494 43.2988 50.4504 43.0927C47.5137 41.0689 44.5469 39.0849 41.1869 36.8217ZM36.3048 36.6589C33.5328 38.6096 31.2648 40.3145 28.9128 41.8299C25.9963 43.6809 25.8216 44.206 27.8813 47.0175C28.3013 47.5924 28.7885 48.1208 29.3697 48.8154C32.2291 45.0701 34.692 41.3879 36.3048 36.6589Z" fill="#463DCF"/>
<path d="M280.13 44.9239C276.931 45.8079 276.259 45.5885 274.7 43.4151C273.911 42.3085 273.205 41.1287 272.328 40.0919C271.851 39.5302 271.142 38.9221 270.46 38.8091C267.799 38.3671 267.409 38.7659 267.402 41.4278C267.402 42.0426 267.362 42.6641 267.402 43.2789C267.51 44.7278 267.013 45.3991 265.386 45.3858C263.706 45.3858 263.629 44.442 263.649 43.2224C263.679 41.2484 263.69 39.271 263.649 37.2937C263.626 35.9644 264.183 35.3762 265.551 35.4027C267.799 35.4459 270.047 35.4459 272.294 35.3828C274.542 35.3197 275.99 34.0203 275.964 32.2423C275.943 30.5807 274.472 29.3212 272.308 29.2514C270.144 29.1816 267.94 29.2082 265.749 29.2248C264.583 29.2248 263.669 29.1185 263.636 27.5864C263.602 26.0544 264.429 25.8384 265.652 25.9248C268.992 26.1508 272.372 26.1175 275.658 26.6659C278.171 27.0846 279.508 29.145 279.71 31.6508C279.912 34.1565 279.055 36.2169 276.753 37.4C275.55 38.0148 275.54 38.5399 276.263 39.507C277.563 41.2085 278.762 42.9831 280.13 44.9239Z" fill="#1D1D1B"/>
<path d="M256.368 34.851C257.376 36.3133 258.747 37.4698 259.056 38.839C259.802 42.242 257.312 45.0634 253.599 45.2761C250.911 45.4323 248.223 45.3027 245.535 45.3293C244.427 45.3293 243.986 44.8507 243.963 43.764C243.936 42.5544 244.487 42.1024 245.643 42.1024C247.578 42.1024 249.514 42.1356 251.449 42.0825C254.255 42.0027 255.481 41.1619 255.417 39.4438C255.36 37.8121 254.157 37.0677 251.459 37.0311C249.524 37.0078 247.588 37.0311 245.653 37.0112C244.645 37.0112 243.973 36.6489 243.973 35.4991C243.973 34.3492 244.645 34.0036 245.653 33.987C247.669 33.9571 249.648 33.9571 251.644 33.8773C253.079 33.8175 254.308 33.2692 254.392 31.674C254.48 29.9924 253.159 29.464 251.785 29.3477C249.86 29.1949 247.921 29.2214 245.986 29.2081C244.79 29.2081 243.939 28.9788 243.916 27.49C243.892 25.8782 244.894 25.8949 246.019 25.9048C248.035 25.9048 250.018 25.9048 252.017 25.9048C254.507 25.9048 256.56 26.7024 257.682 29.0553C258.804 31.4081 258.001 33.3689 256.368 34.851Z" fill="#1D1D1B"/>
<path d="M318.434 37.7722C318.434 34.5054 318.457 31.2353 318.434 27.9686C318.434 26.729 318.494 25.8317 320.191 25.8782C321.693 25.9181 322.13 26.4764 322.117 27.8722C322.063 32.9967 322.117 38.1211 322.056 43.2423C322.056 43.9235 321.545 45.1531 321.24 45.1631C320.292 45.1997 318.888 45.0767 318.444 44.4619C314.163 38.6994 310.044 32.8305 305.878 26.9683C305.796 26.8078 305.738 26.6365 305.706 26.4598C307.578 25.4196 309.009 25.6788 310.162 27.2707C312.339 30.2815 314.499 33.3024 316.683 36.3099C317.103 36.8882 317.587 37.4232 318.027 37.9716L318.434 37.7722Z" fill="#1D1D1B"/>
<path d="M214.314 37.4399C212.634 37.4399 211.27 37.41 209.913 37.4399C208.555 37.4698 208.444 36.6224 208.434 35.6121C208.424 34.6018 208.538 33.7145 209.902 33.7976C210.087 33.7976 210.275 33.7976 210.464 33.7976C214.314 33.7311 214.314 33.7311 214.314 29.9891C214.314 29.3245 214.344 28.6299 214.314 27.952C214.25 26.7323 214.314 25.8151 216.041 25.865C217.583 25.9115 218.101 26.4033 218.081 27.9254C218.007 33.0499 218.007 38.1732 218.081 43.2955C218.101 44.791 217.634 45.3426 216.065 45.3825C214.344 45.429 214.287 44.5317 214.314 43.2988C214.348 41.4644 214.314 39.62 214.314 37.4399Z" fill="#1D1D1B"/>
<path d="M294.336 45.1166C294.034 43.4018 293.714 42.1257 295.878 41.1752C299.238 39.6864 300.381 32.7208 295.64 29.9758C293.785 28.9024 294.003 27.6894 294.38 26.1607C298.976 26.4498 302.423 30.4809 302.477 35.4858C302.531 40.4906 299.09 44.6347 294.336 45.1166Z" fill="#1D1D1B"/>
<path d="M291.235 26.081C291.571 27.7426 291.907 29.0121 289.81 29.8994C287.546 30.8532 286.786 33.1163 286.726 35.4426C286.672 37.8553 287.445 40.165 289.793 41.1586C291.994 42.0858 291.453 43.4849 291.349 45.0302C287.24 45.2064 283.423 41.1387 282.969 36.3C282.516 31.4614 286.198 26.7689 291.235 26.081Z" fill="#1D1D1B"/>
<path d="M90.8644 44.9837C87.8875 45.881 87.286 45.5719 86.3385 42.9598C84.5745 38.1078 82.7567 33.2725 80.9625 28.4272C80.7139 27.7625 80.5257 27.0547 80.3107 26.38C82.9987 25.3831 84.0335 25.7154 84.8971 28.0084C86.866 33.2459 88.7779 38.5066 90.6931 43.764C90.7974 44.1627 90.8549 44.572 90.8644 44.9837Z" fill="#1D1D1B"/>
<path d="M112.335 35.5589C112.335 38.2175 112.274 40.8762 112.355 43.5148C112.402 45.0468 111.683 45.3559 110.309 45.3925C108.83 45.429 108.531 44.7644 108.541 43.4916C108.584 38.2474 108.584 33.0033 108.541 27.7592C108.541 26.4299 108.908 25.8716 110.342 25.9015C111.717 25.9281 112.419 26.2604 112.358 27.7858C112.271 30.3613 112.335 32.9535 112.335 35.5589Z" fill="#1D1D1B"/>
<path d="M153.676 35.6885C153.676 38.3471 153.639 40.9824 153.693 43.6278C153.717 44.884 153.246 45.3924 151.943 45.3692C150.719 45.3459 149.906 45.1498 149.927 43.6743C149.96 38.3238 149.967 32.9701 149.927 27.6163C149.927 26.1441 150.666 25.9081 151.912 25.8982C153.159 25.8882 153.75 26.2305 153.72 27.5598C153.633 30.2749 153.676 32.9834 153.676 35.6885Z" fill="#1D1D1B"/>
<path d="M201.523 35.529C201.523 32.8704 201.58 30.2118 201.503 27.5731C201.455 26.0311 202.343 25.938 203.519 25.9115C204.795 25.855 205.296 26.2538 205.296 27.5831C205.242 32.9468 205.242 38.3128 205.296 43.6809C205.296 44.9903 204.789 45.4024 203.519 45.3658C202.309 45.3326 201.466 45.1797 201.503 43.6677C201.573 40.9559 201.523 38.2408 201.523 35.529Z" fill="#1D1D1B"/>
<path d="M125.422 36.7354C123.44 36.7354 123.07 36.3067 123.349 34.4955C124.118 29.5106 128.019 26.081 133.093 25.9414C134.403 25.9049 135.717 25.9414 137.028 25.9115C138.224 25.8749 139.074 26.0212 139.044 27.5731C139.013 29.1251 138.093 29.2082 136.94 29.2348C135.569 29.2028 134.197 29.2627 132.834 29.4142C129.525 29.916 127.912 31.5178 127.357 34.7979C127.136 36.0275 126.83 36.9846 125.422 36.7354Z" fill="#1D1D1B"/>
<path d="M127.411 45.3426C126.662 45.3426 125.913 45.326 125.167 45.3426C124.068 45.3725 123.201 45.2495 123.198 43.8039C123.194 42.3583 123.782 41.7501 125.214 41.8099C126.148 41.8365 127.082 41.8099 128.019 41.8099C132.36 41.79 133.889 40.587 135.075 36.4562C135.237 35.9045 135.882 35.1834 136.403 35.0936C138.755 34.6782 139.349 35.426 138.721 37.7522C137.347 42.7737 133.547 45.3326 127.411 45.3426Z" fill="#1D1D1B"/>
<path d="M172.425 29.4873C170.362 29.4873 168.302 29.4607 166.243 29.4873C164.801 29.5105 164.707 28.6266 164.664 27.5332C164.62 26.3402 165.063 25.8716 166.29 25.8982C170.473 25.9447 174.66 25.9347 178.843 25.8982C180.042 25.8982 180.708 26.1906 180.681 27.5598C180.654 28.929 180.143 29.5006 178.796 29.4873C176.672 29.4707 174.549 29.4906 172.425 29.4873Z" fill="#1D1D1B"/>
<path d="M98.952 26.2538C96.9562 31.0659 95.0343 35.7151 93.109 40.361C91.4559 38.0347 90.4815 35.9843 91.9632 33.5051C92.904 31.9365 93.4215 30.122 94.1304 28.4172C95.293 25.6323 95.5416 25.5094 98.952 26.2538Z" fill="#1D1D1B"/>
<path d="M230.362 45.3393C228.497 45.3393 226.632 45.3393 224.767 45.3393C223.759 45.3393 223.087 45.1 223.087 43.9136C223.087 42.8535 223.151 41.8399 224.552 41.8299C228.53 41.7967 232.509 41.7967 236.487 41.8299C237.777 41.8299 237.875 42.797 237.891 43.7873C237.911 44.8641 237.448 45.3625 236.332 45.3459C234.343 45.316 232.354 45.3393 230.362 45.3393Z" fill="#1D1D1B"/>
<path d="M230.533 25.9215C232.465 25.9215 234.397 25.9414 236.329 25.9215C237.394 25.9215 237.945 26.2937 237.948 27.4236C237.952 28.5535 237.586 29.2115 236.362 29.2082C232.501 29.2082 228.639 29.2082 224.777 29.2082C223.638 29.2082 223.097 28.7396 223.07 27.5465C223.043 26.3535 223.571 25.8849 224.75 25.9181C226.672 25.9514 228.604 25.9215 230.533 25.9215Z" fill="#1D1D1B"/>
<path d="M174.441 38.7226C174.441 40.4507 174.408 42.1788 174.441 43.9069C174.471 45.2362 173.662 45.3858 172.61 45.3492C171.632 45.316 170.664 45.3492 170.668 43.98C170.668 40.5239 170.668 37.0677 170.668 33.6115C170.668 32.1625 171.676 32.1625 172.731 32.1226C173.893 32.0794 174.481 32.5048 174.451 33.7245C174.411 35.3894 174.444 37.0544 174.441 38.7226Z" fill="#1D1D1B"/>
<path d="M229.995 33.8109C231.612 33.8109 233.231 33.8374 234.847 33.8109C236.05 33.7876 236.527 34.3592 236.527 35.4991C236.527 36.5858 236.158 37.3036 234.941 37.3036C231.517 37.3036 228.097 37.3036 224.673 37.3036C223.477 37.3036 223.091 36.6024 223.091 35.4958C223.091 34.326 223.605 33.8109 224.771 33.8341C226.511 33.8308 228.252 33.8142 229.995 33.8109Z" fill="#1D1D1B"/>
<path d="M305.575 30.8266C306.798 32.5348 308.656 33.8541 308.67 36.31C308.67 38.8988 308.67 41.4909 308.67 44.0798C308.67 45.3825 307.763 45.3592 306.862 45.3326C306.029 45.3094 304.96 45.5553 304.954 44.2094C304.933 39.8426 304.954 35.4758 304.954 31.1091L305.575 30.8266Z" fill="#1D1D1B"/>
</svg>
