<svg id="Layer_1" data-name="Layer 1" xmlns="http://www.w3.org/2000/svg" viewBox="0 0 1000 198.6"><defs><style>.cls-1{fill:#1d1d1b;}</style></defs><path class="cls-1" d="M54.52,148.11c-1.09-3.55-2.27-6.43-2.8-9.43-.29-1.7.48-3.59.77-5.4a34.78,34.78,0,0,1,4.44,3.09c.89.83,1.33,2.16,2.69,4.53,1.82-8.62,3.71-16,4.88-23.53,1.08-7,1.13-14.07,2.19-21a9,9,0,0,1,3.86-5.81C85.22,82.38,99.16,73.28,111,61.22c3.13-3.2,6.19-3.28,9.08-.06C131.15,73.53,145,82,159.41,89.9c2.1,1.16,3.88,4.41,4.27,6.93,2.22,14,4,28.15,5.86,42.24l1.86.38a25.07,25.07,0,0,1,2.79-4.51c.87-.91,2.4-1.2,3.63-1.77.51,1.25,1.65,2.65,1.4,3.74-.8,3.56-2.11,7-3.61,11.71,4.29,0,7.75-.19,11.16.11,1.14.1,2.17,1.49,3.25,2.28-1,.85-1.93,2.05-3.11,2.44-1.35.43-2.94.16-4.43.16q-67.15,0-134.31-.1c-2.39,0-6.87-1.64-6.82-2.17.47-4.68,4.45-2.18,7-2.74A49.8,49.8,0,0,1,54.52,148.11Zm92.66-57.22L115.13,66.14,83.22,90.89c4.35,0,7.32-.31,10.18.12,1.64.25,3.09,1.71,4.62,2.63-1.61.85-3.17,2.32-4.83,2.44a83,83,0,0,1-13.92,0c-5.4-.5-7.34,1.23-7.79,6.9-.84,10.49-2.67,20.91-4.37,31.32-.74,4.48-2.17,8.85-3.39,13.69H78.64c-2-5.51-4.46-10.52-5.57-15.81-.44-2.08,1.4-6,3.3-7,12.9-7,23.92-16.23,34-26.75,4.64-4.84,5.91-5,10.18,0A108.9,108.9,0,0,0,154,124.9c3.33,1.7,4.81,4.07,3.57,7.66-1.79,5.17-3.76,10.27-5.66,15.44h13.67c-2.43-16.57-4.71-32.68-7.32-48.74-.2-1.21-2.75-2.8-4.3-2.9-5.73-.36-11.52,0-17.26-.3-1.4-.08-2.72-1.71-4.08-2.63,1.4-.85,2.74-2.24,4.23-2.42C139.87,90.63,143,90.89,147.18,90.89Zm-31.82,20.24L95.41,148h39.38C128,135.06,121.37,122.53,115.36,111.13Zm7.22-.33c4.49,13.9,11.87,24.93,20.44,35.53,5.51-3.16,7.17-8.52,8.89-13.72.24-.73-.87-2.32-1.76-2.94C141.41,123.58,132.58,117.61,122.58,110.8Zm-14.53-.49c-8.25,5.87-15,11-22,15.56-8.68,5.57-9.2,7.15-3.07,15.61,1.25,1.73,2.7,3.32,4.43,5.41C95.92,135.62,103.25,124.54,108.05,110.31Z"/><path class="cls-1" d="M833.72,135.18c-9.52,2.66-11.52,2-16.16-4.54-2.35-3.33-4.45-6.88-7.06-10-1.42-1.69-3.53-3.52-5.56-3.86-7.92-1.33-9.08-.13-9.1,7.88,0,1.85-.12,3.72,0,5.57.32,4.36-1.16,6.38-6,6.34-5,0-5.23-2.84-5.17-6.51.09-5.94.12-11.89,0-17.84-.07-4,1.59-5.77,5.66-5.69,6.69.13,13.38.13,20.07-.06s11-4.1,10.92-9.45c-.06-5-4.44-8.79-10.88-9s-13-.13-19.52-.08c-3.47,0-6.19-.32-6.29-4.93s2.36-5.26,6-5c9.94.68,20,.58,29.78,2.23,7.48,1.26,11.46,7.46,12.06,15s-1.95,13.74-8.8,17.3c-3.58,1.85-3.61,3.43-1.46,6.34C826.08,124,829.65,129.34,833.72,135.18Z"/><path class="cls-1" d="M763,104.87c3,4.4,7.08,7.88,8,12,2.22,10.24-5.19,18.73-16.24,19.37-8,.47-16,.08-24,.16-3.3,0-4.61-1.44-4.68-4.71-.08-3.64,1.56-5,5-5,5.76,0,11.52.1,17.28-.06,8.35-.24,12-2.77,11.81-7.94-.17-4.91-3.75-7.15-11.78-7.26-5.76-.07-11.52,0-17.28-.06-3,0-5-1.09-5-4.55s2-4.5,5-4.55c6-.09,11.89-.09,17.83-.33,4.27-.18,7.93-1.83,8.18-6.63.26-5.06-3.67-6.65-7.76-7-5.73-.46-11.5-.38-17.26-.42-3.56,0-6.09-.69-6.16-5.17-.07-4.85,2.91-4.8,6.26-4.77,6,0,11.9,0,17.85,0,7.41,0,13.52,2.4,16.86,9.48S767.86,100.41,763,104.87Z"/><path class="cls-1" d="M947.72,113.66c0-9.83.07-19.67,0-29.5,0-3.73.18-6.43,5.23-6.29,4.47.12,5.77,1.8,5.73,6-.16,15.42,0,30.84-.18,46.25,0,2.05-1.52,5.75-2.43,5.78-2.82.11-7-.26-8.32-2.11-12.74-17.34-25-35-37.4-52.64a5.62,5.62,0,0,1-.51-1.53c5.57-3.13,9.83-2.35,13.26,2.44,6.48,9.06,12.91,18.15,19.41,27.2,1.25,1.74,2.69,3.35,4,5Z"/><path class="cls-1" d="M637.84,112.66c-5,0-9.06-.09-13.1,0s-4.37-2.46-4.4-5.5.31-5.71,4.37-5.46c.55,0,1.11,0,1.67,0,11.46-.2,11.46-.2,11.46-11.46,0-2,.09-4.09,0-6.13-.19-3.67,0-6.43,5.14-6.28,4.59.14,6.13,1.62,6.07,6.2q-.33,23.13,0,46.25c.06,4.5-1.33,6.16-6,6.28-5.12.14-5.29-2.56-5.21-6.27C637.94,124.77,637.84,119.22,637.84,112.66Z"/><path class="cls-1" d="M876,135.76c-.9-5.16-1.85-9,4.59-11.86,10-4.48,13.4-25.44-.71-33.7-5.52-3.23-4.87-6.88-3.75-11.48,13.68.87,23.94,13,24.1,28.06S890.15,134.31,876,135.76Z"/><path class="cls-1" d="M866.77,78.48c1,5,2,8.82-4.24,11.49-6.74,2.87-9,9.68-9.18,16.68-.16,7.26,2.14,14.21,9.13,17.2,6.55,2.79,4.94,7,4.63,11.65-12.23.53-23.59-11.71-24.94-26.27S851.78,80.55,866.77,78.48Z"/><path class="cls-1" d="M270.43,135.36c-8.86,2.7-10.65,1.77-13.47-6.09-5.25-14.6-10.66-29.15-16-43.73-.74-2-1.3-4.13-1.94-6.16,8-3,11.08-2,13.65,4.9,5.86,15.76,11.55,31.59,17.25,47.41A16.13,16.13,0,0,1,270.43,135.36Z"/><path class="cls-1" d="M334.33,107c0,8-.18,16,.06,23.94.14,4.61-2,5.54-6.09,5.65-4.4.11-5.29-1.89-5.26-5.72q.19-23.67,0-47.34c0-4,1.09-5.68,5.36-5.59,4.09.08,6.18,1.08,6,5.67C334.14,91.36,334.33,99.16,334.33,107Z"/><path class="cls-1" d="M457.37,107.39c0,8-.11,15.93.05,23.89.07,3.78-1.33,5.31-5.21,5.24-3.64-.07-6.06-.66-6-5.1.1-16.1.12-32.21,0-48.32,0-4.43,2.2-5.14,5.91-5.17s5.47,1,5.38,5C457.24,91.1,457.37,99.25,457.37,107.39Z"/><path class="cls-1" d="M599.77,106.91c0-8,.17-16-.06-23.94-.14-4.64,2.5-4.92,6-5C609.51,77.8,611,79,611,83q-.24,24.21,0,48.44c0,3.94-1.51,5.18-5.29,5.07-3.6-.1-6.11-.56-6-5.11C599.92,123.24,599.77,115.07,599.77,106.91Z"/><path class="cls-1" d="M373.28,110.54c-5.9,0-7-1.29-6.17-6.74,2.29-15,13.9-25.32,29-25.74,3.9-.11,7.81,0,11.71-.09,3.56-.11,6.09.33,6,5s-2.83,4.92-6.26,5a90.36,90.36,0,0,0-12.22.54c-9.85,1.51-14.65,6.33-16.3,16.2C378.38,108.41,377.47,111.29,373.28,110.54Z"/><path class="cls-1" d="M379.2,136.44c-2.23,0-4.46-.05-6.68,0-3.27.09-5.85-.28-5.86-4.63s1.74-6.18,6-6c2.78.08,5.56,0,8.35,0,12.92-.06,17.47-3.68,21-16.11.48-1.66,2.4-3.83,3.95-4.1,7-1.25,8.77,1,6.9,8C408.77,128.71,397.46,136.41,379.2,136.44Z"/><path class="cls-1" d="M513.17,88.73c-6.14,0-12.27-.08-18.4,0-4.29.07-4.57-2.59-4.7-5.88-.13-3.59,1.19-5,4.84-4.92,12.45.14,24.91.11,37.36,0,3.57,0,5.55.88,5.47,5s-1.6,5.84-5.61,5.8C525.81,88.68,519.49,88.74,513.17,88.73Z"/><path class="cls-1" d="M294.5,79c-5.94,14.48-11.66,28.47-17.39,42.45-4.92-7-7.82-13.17-3.41-20.63,2.8-4.72,4.34-10.18,6.45-15.31C283.61,77.13,284.35,76.76,294.5,79Z"/><path class="cls-1" d="M685.6,136.43c-5.55,0-11.1,0-16.65,0-3,0-5-.72-5-4.29,0-3.19.19-6.24,4.36-6.27q17.76-.15,35.52,0c3.84,0,4.13,2.91,4.18,5.89.06,3.24-1.32,4.74-4.64,4.69C697.45,136.36,691.53,136.43,685.6,136.43Z"/><path class="cls-1" d="M686.11,78c5.75,0,11.5.06,17.25,0,3.17,0,4.81,1.12,4.82,4.52s-1.08,5.38-4.72,5.37q-17.24,0-34.48,0c-3.39,0-5-1.41-5.08-5s1.49-5,5-4.9C674.62,78.09,680.37,78,686.11,78Z"/><path class="cls-1" d="M519.17,116.52c0,5.2-.1,10.4,0,15.6.09,4-2.32,4.45-5.45,4.34-2.91-.1-5.79,0-5.78-4.12q0-15.6,0-31.2c0-4.36,3-4.36,6.14-4.48,3.46-.13,5.21,1.15,5.12,4.82C519.08,106.49,519.18,111.5,519.17,116.52Z"/><path class="cls-1" d="M684.51,101.74c4.81,0,9.63.08,14.44,0,3.58-.07,5,1.65,5,5.08,0,3.27-1.1,5.43-4.72,5.43-10.19,0-20.37,0-30.56,0-3.56,0-4.71-2.11-4.71-5.44,0-3.52,1.53-5.07,5-5C674.14,101.8,679.32,101.75,684.51,101.74Z"/><path class="cls-1" d="M909.45,92.76c3.64,5.14,9.17,9.11,9.21,16.5,0,7.79,0,15.59,0,23.38,0,3.92-2.7,3.85-5.38,3.77-2.48-.07-5.66.67-5.68-3.38-.06-13.14,0-26.28,0-39.42Z"/></svg>